<?xml version="1.0" encoding="utf-8"?>
<!-- Generator: Adobe Illustrator 16.0.2, SVG Export Plug-In . SVG Version: 6.00 Build 0)  -->
<!DOCTYPE svg PUBLIC "-//W3C//DTD SVG 1.1//EN" "http://www.w3.org/Graphics/SVG/1.1/DTD/svg11.dtd">
<svg version="1.1" id="Layer_1" xmlns="http://www.w3.org/2000/svg" xmlns:xlink="http://www.w3.org/1999/xlink" x="0px" y="0px"
	 width="581px" height="581px" viewBox="0 0 581 581" enable-background="new 0 0 581 581" xml:space="preserve">
<g>
	<g>
		<ellipse fill="#F7C331" cx="290.501" cy="290.5" rx="290.497" ry="290.497"/>
	</g>
	<g>
		<path fill="#FDFDFD" d="M223.4,501.962c0.2,0.8,0.601,2,0.5,3c-0.199,1.199-0.699,2.699-1.5,3.5c-6.699,6.699-6.8,13.1,0,19.8
			c1.7,1.6,2.9,4.399,0.601,6.6c-2.3,2.101-4.601,0.601-6.7-0.7c-1.4-0.899-2.8-1.899-4.1-3c-4-3.5-7.7-3-11.601,0.301
			c-1.6,1.3-3.399,2.399-5.1,3.6s-3.601,1.6-5.2,0.3c-1.9-1.6-1.3-3.8-0.3-5.7c1.2-2.1,2.6-4.1,4.2-6c2.8-3.199,2.8-6.3,0.3-9.699
			c-1.601-2.101-3.101-4.2-4.5-6.5c-1-1.601-1.601-3.5-0.101-5.2c1.601-1.7,3.5-1.2,5.101-0.2c1.899,1.2,3.8,2.5,5.3,4.1
			c3.6,3.601,7.1,3.601,10.9,0.4c2-1.7,4.199-3.2,6.399-4.6C219.5,500.761,221.4,500.561,223.4,501.962z"/>
	</g>
	<g>
		<path fill="#FDFDFC" d="M506.1,197.764c1.2-1.3,2.3-1.399,3.4-1.1c1.399,0.5,2.899,1,4,1.899c9.199,6.5,9.199,6.601,18.8-0.199
			c2.3-1.601,4.8-3.301,7-1c2,2,0.7,4.6-0.8,6.699c-0.7,0.9-1.101,2-1.9,2.801c-4.8,4.5-4.2,9-0.4,13.899c2.2,2.7,6.5,6,2.7,9.5
			c-3.3,3.101-6.399-0.8-9.2-2.899c-6.3-4.601-7.3-4.4-13.899,0.199c-2.7,1.9-5.9,6-9.3,2.9c-3.5-3.2,0.3-6.7,2.399-9.3
			c6.2-7.5,3.5-9.7-0.5-15.2C506.699,203.365,504.3,200.964,506.1,197.764z"/>
	</g>
	<g>
		<path fill="#FDFDFC" d="M38.8,325.613c7.2,7,19,6.8,25.9-0.5c6.699-7.1,6.399-18.7-0.7-25.5c-7.101-6.7-18.7-6.5-25.5,0.5
			C31.6,307.213,31.7,318.813,38.8,325.613z M57.7,306.213c3.5,3.4,3.6,9.101,0.3,12.7c-3.3,3.5-9.101,3.8-12.7,0.5
			c-3.8-3.399-3.9-9.5-0.3-13.1C48.4,302.913,54.3,302.913,57.7,306.213z"/>
	</g>
	<g>
		<path fill="#FBFBFA" d="M481.612,414.64c6.899,7,18.3,7,25.399,0.199c7.2-7,7.3-18.6,0.2-25.8c-6.9-6.899-18.4-7-25.4-0.2
			C474.612,395.94,474.511,407.54,481.612,414.64z M500.511,395.24c3.5,3.3,3.8,9.1,0.5,12.7c-3.3,3.7-9.5,3.899-13.1,0.3
			c-3.4-3.4-3.5-9.2-0.101-12.7C491.211,392.14,497.011,391.94,500.511,395.24z"/>
	</g>
</g>
<g>
	<g>
		<g>
			<circle fill="#1D566F" cx="153.177" cy="387.697" r="31.473"/>
			<circle fill="#1D566F" cx="214.629" cy="387.697" r="31.472"/>
			<circle fill="#1D566F" cx="276.08" cy="387.697" r="31.473"/>
			<circle fill="#1D566F" cx="337.533" cy="387.697" r="31.472"/>
			<circle fill="#1D566F" cx="399.483" cy="387.697" r="31.471"/>
			<path fill="#1D566F" d="M429.056,468.554c0.743-3.403,1.152-6.989,1.152-10.697c0-21.781-13.757-39.436-30.727-39.436
				c-16.968,0-30.724,17.654-30.724,39.436c0,3.708,0.406,7.294,1.153,10.697H429.056z"/>
			<path fill="#1D566F" d="M367.543,467.808c0.465-2.728,0.715-5.554,0.715-8.461c0-21.778-13.753-39.432-30.725-39.432
				c-16.971,0-30.728,17.653-30.728,39.432c0,2.907,0.252,5.733,0.718,8.461H367.543z"/>
			<path fill="#1D566F" d="M306.091,467.808c0.463-2.728,0.715-5.554,0.715-8.461c0-21.778-13.755-39.432-30.726-39.432
				c-16.969,0-30.726,17.653-30.726,39.432c0,2.907,0.252,5.733,0.716,8.461H306.091z"/>
			<path fill="#1D566F" d="M243.893,467.808c0.465-2.728,0.715-5.554,0.715-8.461c0-21.778-13.756-39.432-30.725-39.432
				c-16.97,0-30.726,17.653-30.726,39.432c0,2.907,0.251,5.733,0.715,8.461H243.893z"/>
			<path fill="#1D566F" d="M182.44,467.808c0.464-2.728,0.716-5.554,0.716-8.461c0-21.778-13.757-39.432-30.727-39.432
				c-16.97,0-30.726,17.653-30.726,39.432c0,2.907,0.251,5.733,0.716,8.461H182.44z"/>
		</g>
	</g>
	<rect x="133.398" y="125.344" fill="#1D566F" width="223.416" height="177.141"/>
	<path fill="#DA9219" d="M131.905,102.455h226.152c0,0,26.123,11.942,0,24.63c-27.616,0.747-226.152,0-226.152,0
		S108.767,115.889,131.905,102.455z"/>
	<path fill="#DA9219" d="M131.905,300.244h226.152c0,0,26.123,11.943,0,24.631c-27.616,0.747-226.152,0-226.152,0
		S108.767,313.68,131.905,300.244z"/>
	<rect x="190.215" y="257.734" fill="#283741" width="86.89" height="10.449"/>
	<rect x="190.371" y="182.194" fill="#283741" width="10.449" height="86.89"/>
	<rect x="158.028" y="151.841" fill="#ED8B6D" width="75.633" height="30.353"/>
	<rect x="158.028" y="207.695" fill="#B7DEE0" width="75.633" height="30.354"/>
	<rect x="257.048" y="244.267" fill="#F2CE8A" width="74.141" height="31.597"/>
	<rect x="251.139" y="145.745" fill="#283741" width="12.314" height="12.501"/>
	<rect x="275.613" y="145.745" fill="#283741" width="12.315" height="12.501"/>
	<rect x="275.613" y="170.469" fill="#283741" width="12.315" height="12.502"/>
	<rect x="251.139" y="170.469" fill="#283741" width="12.314" height="12.502"/>
	<rect x="251.139" y="194.726" fill="#283741" width="12.314" height="12.502"/>
	<rect x="300.913" y="145.745" display="none" fill="#283741" width="12.315" height="12.501"/>
	<path fill="#E7552A" d="M326.627,171.868l32.55,35.826h99.268c0,0,21.646,4.479,21.646,20.152v47.955h-24.631v80.42
		c0,0-62.799-0.418-61.949,0c0.851,0.42-1.119-123.338-1.119-123.338s-43.291-0.374-42.17-0.374
		c1.118,0-42.171-43.289-42.171-43.289L326.627,171.868z"/>
	<circle fill="#E7552A" cx="424.485" cy="176.719" r="30.975"/>
</g>
</svg>
