<!-- Generator: Adobe Illustrator 21.0.2, SVG Export Plug-In  -->
<svg version="1.1"
	 xmlns="http://www.w3.org/2000/svg" xmlns:xlink="http://www.w3.org/1999/xlink" xmlns:a="http://ns.adobe.com/AdobeSVGViewerExtensions/3.0/"
	 x="0px" y="0px" width="581px" height="581px" viewBox="0 0 581 581" style="overflow:scroll;enable-background:new 0 0 581 581;"
	 xml:space="preserve">
<style type="text/css">
	.st0{fill:#8CC63F;}
	.st1{fill:#FDFDFD;}
	.st2{fill:#FDFDFC;}
	.st3{fill:#FBFBFA;}
	.st4{fill:#333638;}
	.st5{fill:#F4C941;}
	.st6{fill:#4B4E50;}
	.st7{fill:#4A4E50;}
	.st8{fill:#FCF8EA;}
	.st9{fill:#47A997;}
</style>
<defs>
</defs>
<g>
	
		<ellipse transform="matrix(0.7071 -0.7071 0.7071 0.7071 -120.329 290.5)" class="st0" cx="290.5" cy="290.5" rx="290.5" ry="290.5"/>
	<path class="st1" d="M137.4,129.8c0.2,0.8,0.6,2,0.5,3c-0.2,1.2-0.7,2.7-1.5,3.5c-6.7,6.7-6.8,13.1,0,19.8c1.7,1.6,2.9,4.4,0.6,6.6
		c-2.3,2.1-4.6,0.6-6.7-0.7c-1.4-0.9-2.8-1.9-4.1-3c-4-3.5-7.7-3-11.6,0.3c-1.6,1.3-3.4,2.4-5.1,3.6c-1.7,1.2-3.6,1.6-5.2,0.3
		c-1.9-1.6-1.3-3.8-0.3-5.7c1.2-2.1,2.6-4.1,4.2-6c2.8-3.2,2.8-6.3,0.3-9.7c-1.6-2.1-3.1-4.2-4.5-6.5c-1-1.6-1.6-3.5-0.1-5.2
		c1.6-1.7,3.5-1.2,5.1-0.2c1.9,1.2,3.8,2.5,5.3,4.1c3.6,3.6,7.1,3.6,10.9,0.4c2-1.7,4.2-3.2,6.4-4.6
		C133.5,128.6,135.4,128.4,137.4,129.8z"/>
	<path class="st2" d="M460.1,127.5c1.2-1.3,2.3-1.4,3.4-1.1c1.4,0.5,2.9,1,4,1.9c9.2,6.5,9.2,6.6,18.8-0.2c2.3-1.6,4.8-3.3,7-1
		c2,2,0.7,4.6-0.8,6.7c-0.7,0.9-1.1,2-1.9,2.8c-4.8,4.5-4.2,9-0.4,13.9c2.2,2.7,6.5,6,2.7,9.5c-3.3,3.1-6.4-0.8-9.2-2.9
		c-6.3-4.6-7.3-4.4-13.9,0.2c-2.7,1.9-5.9,6-9.3,2.9c-3.5-3.2,0.3-6.7,2.4-9.3c6.2-7.5,3.5-9.7-0.5-15.2
		C460.7,133.1,458.3,130.7,460.1,127.5z"/>
	<path class="st2" d="M72.8,391.9c7.2,7,19,6.8,25.9-0.5c6.7-7.1,6.4-18.7-0.7-25.5c-7.1-6.7-18.7-6.5-25.5,0.5
		C65.6,373.5,65.7,385.1,72.8,391.9z M91.7,372.5c3.5,3.4,3.6,9.1,0.3,12.7c-3.3,3.5-9.1,3.8-12.7,0.5c-3.8-3.4-3.9-9.5-0.3-13.1
		C82.4,369.2,88.3,369.2,91.7,372.5z"/>
	<path class="st3" d="M424.5,513.3c6.9,7,18.3,7,25.4,0.2c7.2-7,7.3-18.6,0.2-25.8c-6.9-6.9-18.4-7-25.4-0.2
		C417.5,494.6,417.4,506.2,424.5,513.3z M443.4,493.9c3.5,3.3,3.8,9.1,0.5,12.7c-3.3,3.7-9.5,3.9-13.1,0.3
		c-3.4-3.4-3.5-9.2-0.1-12.7C434.1,490.8,439.9,490.6,443.4,493.9z"/>
</g>
<g>
	<path class="st4" d="M170.5,290.2c0-52.8,0-105.6,0-158.4c0-13.4,6-19.5,19.5-19.5c67.3,0,134.6,0,201.9,0
		c12.2,0,18.5,6.4,18.5,18.5c0,106.6,0,213.3,0,319.9c0,11.5-6.4,18-18,18c-68,0.1-136,0.1-203.9,0c-11.7,0-18-6.6-18-18.5
		C170.5,396.9,170.5,343.6,170.5,290.2z"/>
	<path class="st5" d="M184.1,290.1c0-46,0.1-92-0.1-138c0-4.5,1-5.8,5.7-5.8c67.1,0.2,134.3,0.2,201.4,0c4.5,0,5.8,1.1,5.8,5.7
		c-0.1,91.3-0.1,182.6-0.1,273.9c0,1-0.1,2,0,3c0.6,4.3-0.9,5.6-5.4,5.6c-29.5-0.2-59-0.1-88.5-0.1c-37.8,0-75.6-0.1-113.5,0.1
		c-4.4,0-5.5-1.1-5.5-5.5C184.2,382.8,184.1,336.5,184.1,290.1z"/>
	<path class="st6" d="M300.5,451.1c0,6.3-3.9,10.2-10.2,10.3c-5.8,0.1-9.7-4-9.8-10.1c-0.1-6.2,4.1-10.6,10-10.6
		C295.8,440.8,300.5,445.7,300.5,451.1z"/>
	<path class="st7" d="M290.3,123.7c2.5,0.4,4,1.7,3.8,4c-0.2,2.3-1.7,3.6-4,3.4c-2.1-0.2-3.3-1.5-3.3-3.6
		C286.8,125.1,288.4,124.1,290.3,123.7z"/>
	<path class="st1" d="M223.8,398.5c-4.7,0-9.3-0.1-14,0c-3.7,0.1-5.7-1.3-5.7-5.2c0-10,0-20,0.1-30c0-3.2,1.6-4.9,4.9-4.8
		c10,0.1,20,0,30,0c3.4,0,4.9,1.8,4.9,5c0.1,10,0.1,20,0.1,30c0,3.4-1.7,5.2-5.3,5.1C233.8,398.4,228.8,398.5,223.8,398.5
		C223.8,398.5,223.8,398.5,223.8,398.5z"/>
	<path class="st8" d="M320.1,191.5c-17,0-33.9-0.1-50.9,0.1c-3.7,0-5-1-4.8-4.8c0.2-3.3,0.2-5.4,4.7-5.4c34.3,0.2,68.5,0.2,102.8,0
		c4.1,0,4.6,1.7,4.5,5c-0.1,3.2-0.3,5.2-4.5,5.1C354.7,191.4,337.4,191.5,320.1,191.5z"/>
	<path class="st8" d="M320.1,251.5c-17,0-33.9-0.1-50.9,0.1c-3.7,0-5-1-4.8-4.8c0.2-3.4,0.2-5.4,4.7-5.4c34.3,0.2,68.5,0.2,102.8,0
		c4.1,0,4.6,1.7,4.5,5.1c0,3.2-0.3,5.2-4.5,5.1C354.7,251.4,337.4,251.5,320.1,251.5z"/>
	<path class="st8" d="M320.1,311.5c-16.8,0-33.6-0.1-50.4,0.1c-3.4,0-5.5-0.2-5.4-4.7c0.1-3.9,0.8-5.5,5.2-5.5
		c34.1,0.2,68.2,0.2,102.3,0c4,0,4.6,1.5,4.6,5c0,3.7-0.8,5.3-4.9,5.2C354.4,311.4,337.3,311.5,320.1,311.5z"/>
	<path class="st1" d="M320.7,361.5c17,0,34,0.1,51-0.1c3.7,0,5,1,4.8,4.8c-0.2,3.3-0.1,5.5-4.7,5.4c-34.3-0.2-68.7-0.2-103,0
		c-3.5,0-4.8-0.9-4.5-4.5c0.3-3-0.6-5.8,4.4-5.7C286,361.7,303.4,361.5,320.7,361.5C320.7,361.5,320.7,361.5,320.7,361.5z"/>
	<path class="st8" d="M244.1,194.7c0,6,0,12,0,18c0,4.2-1.8,6-6.1,5.9c-9.5-0.2-19-0.1-28.4,0c-3.5,0-5.2-1.3-5.1-5
		c0.1-10.1,0.1-20.3,0.1-30.4c0-2.5,0.8-4.5,3.5-4.5c11-0.1,22,0,32.9,0.1c0.6,0,1.1,0.6,1.7,0.9c1.4,1.5,1,3.1-0.1,4.5
		c-4.5,5.5-8.5,11.5-13.4,16.7c-2.9,3.1-4.4,3-7.4,0c-1.7-1.8-3.1-3.9-4.9-5.7c-0.9-1-2.1-1.9-3.5-1c-1.4,0.9-1.1,2.4-0.3,3.5
		c2.9,4.3,6,8.4,9.7,12c2.3,2.3,4.6,1.3,6.5-0.9c3.6-4,6.7-8.3,10-12.4C240.5,194.9,241.6,193,244.1,194.7z"/>
	<path class="st8" d="M244.1,254.7c0,6,0,12,0,18c0,4.2-1.8,6-6.1,5.9c-9.5-0.2-19-0.1-28.4,0c-3.5,0-5.2-1.3-5.1-5
		c0.1-10.1,0.1-20.3,0.1-30.4c0-2.5,0.8-4.5,3.5-4.5c11-0.1,22,0,32.9,0.1c0.6,0,1.1,0.6,1.7,0.9c1.4,1.5,1,3.1-0.1,4.5
		c-4.5,5.5-8.5,11.5-13.4,16.7c-2.9,3.1-4.4,3-7.4,0c-1.7-1.8-3.1-3.9-4.9-5.7c-0.9-1-2.1-1.9-3.5-1c-1.4,0.9-1.1,2.4-0.3,3.5
		c2.9,4.3,6,8.4,9.7,12c2.3,2.3,4.6,1.3,6.5-0.9c3.6-4,6.7-8.3,10-12.4C240.5,254.9,241.6,253,244.1,254.7z"/>
	<path class="st8" d="M244.1,314.7c0,6,0,12,0,18c0,4.2-1.8,6-6.1,5.9c-9.5-0.2-19-0.1-28.4,0c-3.5,0-5.2-1.3-5.1-5
		c0.1-10.1,0.1-20.3,0.1-30.4c0-2.5,0.8-4.5,3.5-4.5c11-0.1,22,0,32.9,0.1c0.6,0,1.1,0.6,1.7,0.9c1.4,1.5,1,3.1-0.1,4.5
		c-4.5,5.5-8.5,11.5-13.4,16.7c-2.9,3.1-4.4,3-7.4,0c-1.7-1.8-3.1-3.9-4.9-5.7c-0.9-1-2.1-1.9-3.5-1c-1.4,0.9-1.1,2.4-0.3,3.5
		c2.9,4.3,6,8.4,9.7,12c2.3,2.3,4.6,1.3,6.5-0.9c3.6-4,6.7-8.3,10-12.4C240.5,314.9,241.6,313,244.1,314.7z"/>
	<path class="st9" d="M244.1,194.7c-4.5,5.6-9,11.1-13.5,16.7c-3.7,4.5-6.4,4.6-10.1,0.2c-3.9-4.7-7.6-9.7-11.6-14.4
		c-3.2-3.7,0.8-4.4,2.4-5.9c1.5-1.5,3.2-3.8,5.5-0.5c1.9,2.7,4.2,5.2,6.1,7.9c1.6,2.1,2.7,3,4.8,0.3c4.8-6.5,10-12.9,15-19.3
		c3.7-0.4,5.3,2.8,7.7,4.6c1.4,1,0,2.1-0.6,2.9C247.9,189.7,246,192.2,244.1,194.7z"/>
	<path class="st9" d="M244.1,254.7c-4.5,5.6-9,11.1-13.5,16.7c-3.7,4.5-6.4,4.6-10.1,0.2c-3.9-4.7-7.6-9.7-11.6-14.4
		c-3.2-3.7,0.8-4.4,2.4-5.9c1.5-1.5,3.2-3.8,5.5-0.5c1.9,2.7,4.2,5.2,6.1,7.9c1.6,2.1,2.7,3,4.8,0.3c4.8-6.5,10-12.9,15-19.3
		c3.7-0.4,5.3,2.8,7.7,4.6c1.4,1,0,2.1-0.6,2.9C247.9,249.7,246,252.2,244.1,254.7z"/>
	<path class="st9" d="M244.1,314.7c-4.5,5.6-9,11.1-13.5,16.7c-3.7,4.5-6.4,4.6-10.1,0.2c-3.9-4.7-7.6-9.7-11.6-14.4
		c-3.2-3.7,0.8-4.4,2.4-5.9c1.5-1.5,3.2-3.8,5.5-0.5c1.9,2.7,4.2,5.2,6.1,7.9c1.6,2.1,2.7,3,4.8,0.3c4.8-6.5,10-12.9,15-19.3
		c3.7-0.4,5.3,2.8,7.7,4.6c1.4,1,0,2.1-0.6,2.9C247.9,309.7,246,312.2,244.1,314.7z"/>
	<path class="st8" d="M292.2,211.5c-8,0-16-0.2-24,0.1c-3.9,0.1-3.9-2.1-3.7-4.7c0.2-2.5-0.9-5.4,3.6-5.4c16.2,0.2,32.3,0.1,48.5,0
		c3.8,0,3.9,2,3.7,4.7c-0.2,2.5,0.8,5.5-3.7,5.4C308.5,211.3,300.3,211.5,292.2,211.5C292.2,211.5,292.2,211.5,292.2,211.5z"/>
	<path class="st8" d="M291.6,271.5c-7.8,0-15.7-0.2-23.5,0.1c-4,0.1-3.7-2.2-3.6-4.8c0.1-2.5-0.8-5.3,3.7-5.3
		c16.2,0.2,32.3,0.1,48.5,0c3.9,0,3.8,2.2,3.7,4.8c-0.1,2.6,0.6,5.4-3.8,5.3C308.3,271.3,299.9,271.5,291.6,271.5
		C291.6,271.5,291.6,271.5,291.6,271.5z"/>
	<path class="st8" d="M292.5,321.5c7.8,0,15.7,0.2,23.5-0.1c3.6-0.1,4.7,1.2,4.4,4.6c-0.2,2.8,0.5,5.6-4.1,5.5c-16-0.2-32-0.2-48,0
		c-3.8,0-4-1.9-3.8-4.6c0.1-2.8-0.7-5.7,4-5.5C276.5,321.8,284.5,321.5,292.5,321.5C292.5,321.5,292.5,321.5,292.5,321.5z"/>
	<path class="st1" d="M292,391.5c-8,0-16-0.2-24,0.1c-4,0.1-3.8-2.2-3.6-4.8c0.2-2.5-0.9-5.4,3.6-5.3c16.3,0.2,32.6,0.1,48.9,0
		c3.7,0,3.6,2.1,3.4,4.5c-0.2,2.3,1.3,5.7-3.4,5.6C308.6,391.4,300.3,391.5,292,391.5C292,391.5,292,391.5,292,391.5z"/>
</g>
</svg>
