<!-- Generator: Adobe Illustrator 21.0.2, SVG Export Plug-In  -->
<svg version="1.1"
	 xmlns="http://www.w3.org/2000/svg" xmlns:xlink="http://www.w3.org/1999/xlink" xmlns:a="http://ns.adobe.com/AdobeSVGViewerExtensions/3.0/"
	 x="0px" y="0px" width="581px" height="581px" viewBox="0 0 581 581" style="overflow:scroll;enable-background:new 0 0 581 581;"
	 xml:space="preserve">
<style type="text/css">
	.st0{fill:#8CC63F;}
	.st1{fill:#FDFDFD;}
	.st2{fill:#FDFDFC;}
	.st3{fill:#FBFBFA;}
	.st4{fill:#546A79;}
	.st5{fill:#AFB6BB;}
	.st6{fill:#E7ECED;}
	.st7{fill:#F9CF00;}
	.st8{fill:#F9BE00;}
	.st9{fill:#FFFFFF;}
	.st10{fill:none;stroke:#FFFFFF;stroke-width:6;stroke-miterlimit:10;}
	.st11{fill:#231F20;}
</style>
<defs>
</defs>
<g>
	<g>
		
			<ellipse transform="matrix(0.7071 -0.7071 0.7071 0.7071 -120.329 290.5)" class="st0" cx="290.5" cy="290.5" rx="290.5" ry="290.5"/>
	</g>
	<g>
		<path class="st1" d="M183.4,459.8c0.2,0.8,0.6,2,0.5,3c-0.2,1.2-0.7,2.7-1.5,3.5c-6.7,6.7-6.8,13.1,0,19.8
			c1.7,1.6,2.9,4.4,0.6,6.6c-2.3,2.1-4.6,0.6-6.7-0.7c-1.4-0.9-2.8-1.9-4.1-3c-4-3.5-7.7-3-11.6,0.3c-1.6,1.3-3.4,2.4-5.1,3.6
			c-1.7,1.2-3.6,1.6-5.2,0.3c-1.9-1.6-1.3-3.8-0.3-5.7c1.2-2.1,2.6-4.1,4.2-6c2.8-3.2,2.8-6.3,0.3-9.7c-1.6-2.1-3.1-4.2-4.5-6.5
			c-1-1.6-1.6-3.5-0.1-5.2c1.6-1.7,3.5-1.2,5.1-0.2c1.9,1.2,3.8,2.5,5.3,4.1c3.6,3.6,7.1,3.6,10.9,0.4c2-1.7,4.2-3.2,6.4-4.6
			C179.5,458.6,181.4,458.4,183.4,459.8z"/>
	</g>
	<g>
		<path class="st2" d="M460.1,127.5c1.2-1.3,2.3-1.4,3.4-1.1c1.4,0.5,2.9,1,4,1.9c9.2,6.5,9.2,6.6,18.8-0.2c2.3-1.6,4.8-3.3,7-1
			c2,2,0.7,4.6-0.8,6.7c-0.7,0.9-1.1,2-1.9,2.8c-4.8,4.5-4.2,9-0.4,13.9c2.2,2.7,6.5,6,2.7,9.5c-3.3,3.1-6.4-0.8-9.2-2.9
			c-6.3-4.6-7.3-4.4-13.9,0.2c-2.7,1.9-5.9,6-9.3,2.9c-3.5-3.2,0.3-6.7,2.4-9.3c6.2-7.5,3.5-9.7-0.5-15.2
			C460.7,133.1,458.3,130.7,460.1,127.5z"/>
	</g>
	<g>
		<path class="st2" d="M72.8,391.9c7.2,7,19,6.8,25.9-0.5c6.7-7.1,6.4-18.7-0.7-25.5c-7.1-6.7-18.7-6.5-25.5,0.5
			C65.6,373.5,65.7,385.1,72.8,391.9z M91.7,372.5c3.5,3.4,3.6,9.1,0.3,12.7c-3.3,3.5-9.1,3.8-12.7,0.5c-3.8-3.4-3.9-9.5-0.3-13.1
			C82.4,369.2,88.3,369.2,91.7,372.5z"/>
	</g>
	<g>
		<path class="st3" d="M424.5,513.3c6.9,7,18.3,7,25.4,0.2c7.2-7,7.3-18.6,0.2-25.8c-6.9-6.9-18.4-7-25.4-0.2
			C417.5,494.6,417.4,506.2,424.5,513.3z M443.4,493.9c3.5,3.3,3.8,9.1,0.5,12.7c-3.3,3.7-9.5,3.9-13.1,0.3
			c-3.4-3.4-3.5-9.2-0.1-12.7C434.1,490.8,439.9,490.6,443.4,493.9z"/>
	</g>
</g>
<g>
	<g>
		<rect x="262.5" y="416.5" class="st4" width="56" height="40"/>
	</g>
	<g>
		<rect x="246.5" y="384.5" class="st5" width="88" height="32"/>
	</g>
	<g>
		<rect x="246.5" y="356.5" class="st6" width="88" height="28"/>
	</g>
	<g>
		<path class="st7" d="M402.5,220.5c0,46.2-28,85.9-68,103v33h-88v-33c-40-17.1-68-56.8-68-103c0-61.8,50.2-112,112-112
			S402.5,158.7,402.5,220.5L402.5,220.5z M402.5,220.5"/>
	</g>
	<g>
		<path class="st8" d="M366.5,220.5c0,42-34,76-76,76c-42,0-76-34-76-76s34-76,76-76C332.5,144.5,366.5,178.5,366.5,220.5
			L366.5,220.5z M366.5,220.5"/>
	</g>
	<g>
		<path class="st9" d="M370.2,267.1c-0.6,0-1.2-0.1-1.7-0.4c-1.7-0.9-2.3-3.1-1.3-4.8c10.5-18.8,13.8-41.5,9.1-62.3
			c-0.4-1.9,0.7-3.8,2.6-4.2c1.9-0.4,3.8,0.8,4.2,2.6c5.1,22.5,1.6,47-9.8,67.3C372.6,266.5,371.4,267.1,370.2,267.1z"/>
	</g>
	<g>
		<path class="st9" d="M371,179.1c-1.3,0-2.5-0.7-3.1-1.9c-18.2-36-63.5-54.6-103.2-42.5c-1.9,0.6-3.8-0.5-4.4-2.3
			c-0.6-1.8,0.5-3.8,2.3-4.4c42.9-13.1,91.8,7.1,111.5,46c0.9,1.7,0.2,3.8-1.5,4.7C372,179,371.5,179.1,371,179.1z"/>
	</g>
	<g>
		<path class="st10" d="M382,220.5"/>
	</g>
	<g>
		<path class="st11" d="M290.5,100.5c-66.2,0-120,53.8-120,120c0,46.3,26.5,88.2,68,108.2v87.8c0,4.4,3.6,8,8,8h8v32
			c0,4.4,3.6,8,8,8h20v16h16v-16h20c4.4,0,8-3.6,8-8v-32h8c4.4,0,8-3.6,8-8v-87.8c41.5-20,68-61.9,68-108.2
			C410.5,154.3,356.7,100.5,290.5,100.5L290.5,100.5z M254.5,364.5h72v12h-72V364.5z M310.5,448.5h-40v-24h40V448.5z M326.5,408.5
			h-72v-16h72V408.5z M331.4,316.2c-2.9,1.3-4.9,4.2-4.9,7.4v25h-72v-25c0-3.2-1.9-6.1-4.9-7.4c-38.4-16.4-63.1-54-63.1-95.7
			c0-57.3,46.7-104,104-104s104,46.7,104,104C394.5,262.2,369.7,299.8,331.4,316.2L331.4,316.2z M331.4,316.2"/>
	</g>
	<g>
		<path class="st11" d="M318.5,216.5h-45.3l36-55.7l-13.4-8.7l-44,68c-1.6,2.5-1.7,5.6-0.3,8.2c1.4,2.6,4.1,4.2,7,4.2h47.4
			l-26.6,56.6l14.5,6.8l32-68c1.2-2.5,1-5.4-0.5-7.7C323.8,217.9,321.2,216.5,318.5,216.5L318.5,216.5z M318.5,216.5"/>
	</g>
	<g>
		<path class="st11" d="M218.5,216.5L218.5,216.5c4.4,0,8,3.6,8,8v0c0,4.4-3.6,8-8,8h0c-4.4,0-8-3.6-8-8v0
			C210.5,220.1,214.1,216.5,218.5,216.5z"/>
	</g>
	<g>
		<path class="st11" d="M362.5,216.5L362.5,216.5c4.4,0,8,3.6,8,8v0c0,4.4-3.6,8-8,8h0c-4.4,0-8-3.6-8-8v0
			C354.5,220.1,358.1,216.5,362.5,216.5z"/>
	</g>
</g>
</svg>
