<svg version="1.1"
	 xmlns="http://www.w3.org/2000/svg" xmlns:xlink="http://www.w3.org/1999/xlink" xmlns:a="http://ns.adobe.com/AdobeSVGViewerExtensions/3.0/"
	 x="0px" y="0px" width="579px" height="579px" viewBox="0 0 579 579" style="overflow:scroll;enable-background:new 0 0 579 579;"
	 xml:space="preserve">
<style type="text/css">
	.st0{fill:#F9CF00;}
	.st1{fill:#07436F;}
	.st2{fill:#FDFDFD;}
	.st3{fill:#FDFDFC;}
	.st4{fill:#FBFBFA;}
	.st5{fill:#E8E8E8;}
	.st6{fill:#415D6C;}
	.st7{fill:#324D5B;}
	.st8{fill:#F8CE03;}
	.st9{fill:#F9CF03;}
	.st10{fill:#08436F;}
	.st11{fill:#FCFCFC;}
	.st12{fill:#ACACAC;}
	.st13{fill:#28A4C4;}
	.st14{fill:#3ACDF5;}
	.st15{fill:#FB4848;}
	.st16{fill:#74B402;}
	.st17{fill:#FBFBFB;}
</style>
<defs>
</defs>
<g>
	<path class="st0" d="M266.9,0c14.7,0,29.4,0,44.1,0c8.7,1.1,17.5,1.1,26.3,1.9c13,1.1,25.5,4.6,37.9,8.4
		c39.6,12.1,75.1,31.8,106.2,59.1c26.9,23.6,49.1,51.2,66,83c13.6,25.8,23.5,52.9,28.8,81.6c1.7,9.4,1.7,19.1,2.3,28.6
		c0.1,1.8-0.6,3.8,0.5,5.5c0,14.3,0,28.6,0,43c-1.1,8.7-1.1,17.5-1.9,26.2c-1.2,12.8-4.5,25.1-8.2,37.3
		c-9.7,31.9-24.6,61.2-44.3,88.2c-2.8,3.8-5.8,7.3-9.9,9.8c-3.2,0.5-6.4,0.6-9.6,0.2c-4.6-0.6-6.3-3.7-3.3-6.9
		c10.5-10.9,11.3-24.3,11.3-38.4c-0.2-85.6-0.1-171.1-0.1-256.7c0-11.8-3-22.1-11.8-30.7c-7.1-6.8-15.4-9.8-24.8-10.8
		c-1.3-0.1-2.6-0.1-4-0.1c-118.9,0-237.8,0-356.7,0c-11.3,0-21.4,3.2-29.6,11.6c-7.3,7.4-10.6,16.3-11.1,26.4
		c-0.3,7.3-0.1,14.7-0.1,22c0,80.8,0.1,161.7-0.1,242.5c0,12.5,1.9,23.9,10.8,33.4c3.5,3.8,2,7.1-3.3,7.5c-6,0.5-12,0.5-18.1-0.2
		c-6.1-3.4-9.7-9.2-13.6-14.7c-23.9-34.2-40.4-71.6-47.9-112.8c-1.7-9.4-1.7-19-2.3-28.6c-0.1-1.5,0.5-3-0.6-4.4
		c0-15.5,0-30.9,0-46.4c1.3-8,1.1-16,1.9-24c1.9-19.5,7.8-37.9,14.6-56.1c12.2-32.6,29.9-62,52.9-88c23.3-26.5,50.3-48.4,81.5-65.2
		c26.2-14.1,53.8-24.2,83.1-29.6c9.4-1.7,19-1.7,28.6-2.3C264,0.5,265.5,1,266.9,0z"/>
	<path class="st0" d="M311,579c-14.7,0-29.4,0-44.1,0c-8.3-1.2-16.8-1.1-25.1-1.9c-13.4-1.2-26.2-4.8-38.9-8.7
		c-39.2-12.1-74.1-31.8-105-58.6c-8.8-7.6-17.1-15.8-24.8-24.6c-2-2.3-4.2-4.8-0.4-7.5c3.1-1,6.4-0.8,9.5-0.8
		c138.1,0,276.2,0,414.4,0c3.2,0,6.4-0.2,9.5,0.7c4.5,3.2,1.5,5.9-0.8,8.3c-12.9,13.9-26.6,27.1-42,38.3
		c-35.6,26-74.9,43.8-118.3,51.9c-9.4,1.8-19,1.7-28.6,2.3C314.6,578.6,312.7,577.9,311,579z"/>
	<path class="st1" d="M515.8,470.3c6.5,0.1,13.1,0.2,19.6,0.2c3.2,0,5.8,0.9,5.9,4.5c0,3.5-2.6,4.6-5.8,4.6c-9.3,0-18.7,0.1-28,0.2
		c-40.9-0.1-81.7-0.2-122.6-0.2c-102.4,0-204.8,0-307.3,0c-2.1,0-4.1,0.1-6.2,0.2c-6-0.1-12-0.2-17.9-0.2c-3,0-5.3-1.1-5.4-4.3
		c-0.1-3.6,2.2-4.8,5.5-4.8c3.2,0,6.4-0.1,9.5-0.2c7.5,0,15.1,0,22.7,0c0.1-2.1-1.8-2.7-2.8-3.9c-6.7-7.6-10.6-16.5-10.6-26.7
		c-0.1-91-0.1-182.1,0-273.1c0-22.7,18.3-40,41.7-40c105.7,0,211.5,0,317.2,0c14.5,0,29-0.1,43.5,0c23,0.1,40.7,17.9,40.7,41
		c0.1,88.4-0.1,176.8,0.2,265.2c0,14.2-3,26.8-14.8,37.4C506.7,470.3,511.3,470.3,515.8,470.3z"/>
	<path class="st2" d="M244.5,93.6c-0.7-0.5-1.8-0.9-2.4-1.8c-0.7-1-1.4-2.4-1.4-3.6c0-9.4-4.5-14.1-14-14c-2.3,0-5.1-1-5-4.2
		c0.1-3.1,2.8-3.6,5.2-4.2c1.6-0.4,3.3-0.6,5-0.7c5.3-0.3,7.6-3.4,8-8.4c0.2-2,0.7-4.1,1.1-6.1c0.4-2,1.4-3.7,3.5-3.9
		c2.5-0.2,3.7,1.8,4.2,3.8c0.6,2.3,1.1,4.8,1.3,7.2c0.3,4.2,2.5,6.4,6.6,7c2.6,0.4,5.2,0.8,7.7,1.4c1.9,0.5,3.7,1.4,3.8,3.6
		c0.1,2.3-1.7,3.3-3.5,3.8c-2.2,0.5-4.4,0.9-6.7,0.9c-5.1,0-7.5,2.5-8,7.5c-0.2,2.6-0.7,5.2-1.3,7.8
		C248.1,91.7,246.9,93.1,244.5,93.6z"/>
	<path class="st3" d="M389,81.1c0.1,9.8-7.9,18.2-17.7,18.4c-9.8,0.3-18.3-7.7-18.5-17.5c-0.3-10.1,7.8-18.6,17.9-18.7
		C380.6,63.2,388.9,71.3,389,81.1z"/>
	<path class="st4" d="M54.3,244.6c-0.1,9.7-8.3,17.9-18.1,17.8c-10.1-0.1-18.2-8.3-18.1-18.4c0.1-9.8,8.3-17.8,18.1-17.8
		C46.2,226.2,54.4,234.5,54.3,244.6z"/>
	<path class="st3" d="M283.8,524.2c0.1,1.7-0.6,2.7-1.7,3.2c-1.3,0.7-2.7,1.3-4.2,1.5c-11.1,1.9-11.2,1.9-13.2,13.4
		c-0.5,2.7-1,5.7-4.2,5.7c-2.8,0-3.7-2.7-4.1-5.3c-0.2-1.1-0.7-2.2-0.6-3.3c0.2-6.6-3.4-9.4-9.6-10.1c-3.5-0.4-8.8,0.4-8.6-4.8
		c0.1-4.6,5.1-4,8.5-4.5c7.7-1.2,8.3-2.1,9.7-9.9c0.6-3.3-0.1-8.4,4.5-8.6c4.8-0.2,4.6,5,4.9,8.2c0.9,9.7,4.3,9.3,11.2,10.4
		C279.5,520.6,282.9,520.6,283.8,524.2z"/>
	<path class="st5" d="M152,305.6c2.5,11.3,4.9,22.6,7.3,33.9c2.7,12.7,5.4,25.4,8.1,38.1c0.2,0.7,0.5,1.4,0.6,2.2
		c0.5,2.7,1.7,4.7,4.7,4.6c3.1,0,4-2.4,4.5-4.9c3.1-13.4,6.3-26.7,9.3-40.1c0.8-3.6,3.6-8.5-2.2-10c-5.9-1.5-5.5,4.4-6.4,7.8
		c-1.8,6.4-3.2,13-5.7,19.3c-5-23.1-10-46.2-15.1-69.3c-0.6-2.8-0.5-6.6-4.6-6.8c-4.2-0.2-4.8,3.4-5.7,6.5
		c-3.4,11.4-6.9,22.7-10.1,34c-0.9,3.3-2.2,4.8-6.1,4.7c-14.9-0.3-29.8-0.2-44.7,0c-3.7,0.1-4.7-1.1-4.7-4.7
		c0.1-51.3,0-102.5,0.1-153.8c0.1-18.4,13.8-31.5,32.7-31.5c96.3-0.1,192.6,0,288.9,0c23.7,0,47.5,0,71.2,0
		c18.8,0.1,32.3,13.7,32.4,32.5c0,50.7-0.1,101.4,0.1,152.1c0,4.6-1.3,5.6-5.6,5.5c-9.6-0.3-19.2-0.1-28.8-0.1
		c-3.4,0-6.3,0.7-6.3,4.7c0,4.1,3.2,4.5,6.5,4.4c9.8-0.1,19.6,0.2,29.4-0.1c4.2-0.1,4.9,1.3,4.8,5.1c-0.2,20.7-0.2,41.5,0,62.2
		c0,4.1-0.8,5.3-5.2,5.3c-67.3-0.2-134.5-0.1-201.8-0.1c-70.7,0-141.3-0.1-212,0.1c-5.1,0-6.5-1.1-6.5-6.4c0.3-20.3,0.3-40.7,0-61
		c-0.1-4.4,1.2-5.2,5.3-5.2c16.4,0.2,32.8,0,49.2,0.2c4.5,0.1,6.8-1.4,8-5.9c2-7.8,4.6-15.5,6.9-23.2
		C151.2,305.7,151.6,305.6,152,305.6z"/>
	<path class="st6" d="M81.5,430.8c-0.4-14.7-0.4-14.7,14.2-14.7c133.7,0,267.4,0,401.1,0c10.8,0,9.8-1,9.8,9.6c0,2.4,0,4.9-0.1,7.3
		c-4.4,13.5-15.5,17.8-28,20.2c-2.1,0.4-4.1,0.1-5.9-1.3c-1.4-1.6-1.4-3.5-0.9-5.3c1.4-5.5-0.5-9.7-5-12.6
		c-3.3-2.1-7.1-2.7-10.6-0.2c-4.3,3.1-6.8,6.9-5.2,12.6c0.7,2.7,0.6,5.3-2.5,6.7c-2.8,0.7-5.6,0.6-8.4,0.6c-64.4,0-128.8,0-193.2,0
		c-2.8,0-5.7,0.1-8.4-0.5c-4.1-1.7-2.6-4.7-1.7-7.6c0.9-2.8,0.4-5.3-1.9-7.2c-2-1.7-4.5-2.1-6.9-0.9c-3.4,1.8-4.1,4.6-3.1,8.1
		c0.7,2.5,2.2,5-0.9,7.1c-7.5,1.4-14.9,1.3-22.4,0.1c-2-1-2.5-2.8-1.8-4.8c1.3-3.7,2.3-7.4-1.6-10.2c-2.4-1.7-5-1.6-7.4,0.2
		c-3.5,2.7-2.7,6.2-1.4,9.7c0.7,1.9,0.4,3.7-1.6,4.9c-7.5,1.4-14.9,1.3-22.4,0.1c-2.3-1.2-2.5-3.2-1.7-5.3c1.3-3.6,1.9-7-1.7-9.6
		c-2.2-1.6-4.6-1.6-6.9-0.2c-4,2.6-3.2,6.3-1.9,10c0.7,1.9,0.4,3.7-1.5,4.9c-7.5,1.4-14.9,1.3-22.4,0.2c-3.5-2-1.8-4.7-1.1-7.4
		c0.9-3.2,0.3-6-2.7-7.8c-2.5-1.5-5.1-1.3-7.3,0.6c-2.2,1.9-2.7,4.3-1.9,7.1c0.6,2.1,2,4.1,0.3,6.4c-7.2,3.6-13.5-0.3-19.5-3.1
		C89.3,445.3,83.4,439.7,81.5,430.8z"/>
	<path class="st7" d="M163.6,451c8.5,0,17,0,25.6,0c3.5-1.9,7.1-1.9,10.6,0c8.5,0,17.1,0,25.6,0c3.5-1.9,7-1.9,10.6,0
		c12.1,0.1,24.1,0.2,36.2,0.2c59.3,0,118.6,0,178,0c1.7-1.1,3.2-0.2,4.6,0.7c4.5,3,8.9,3,13.4,0c1.4-0.9,2.9-1.8,4.6-0.7
		c12.8-0.2,23.5-4.6,31-15.4c0.7-1,1.9-1.8,2.8-2.7c1,13.6-3,24.9-14.9,32.6c-5,3.3-10.7,4.7-16.6,4.7c-120.5,0-241,0-361.6,0
		c-18.4,0-32-13.8-32.1-32.2c0-2.4,0.1-4.9,0.1-7.3c4.5,5.2,8,11.3,14.4,14.7c6.6,3.5,13.3,6,20.9,5.4c3.5-1.9,7.1-1.9,10.6,0
		c8.5,0,17,0,25.6,0C156.5,449.1,160.1,449.2,163.6,451z"/>
	<path class="st8" d="M371.1,90.4c-4.9,0.1-9-3.9-9.2-8.7c-0.2-4.8,3.8-9.1,8.6-9.3c5.1-0.2,9.5,3.9,9.5,9
		C380,86.2,375.9,90.4,371.1,90.4z"/>
	<path class="st9" d="M45.2,244.1c0.1,4.8-3.9,9-8.7,9.2c-4.8,0.2-9.1-3.8-9.4-8.6c-0.3-5,4-9.5,9-9.5
		C41,235.2,45.1,239.3,45.2,244.1z"/>
	<path class="st10" d="M361.4,348.7c3.2-17.3,6.4-34.6,9.5-51.9c4.2-23.3,8.4-46.6,12.6-70c0.6-3.1,1.4-6.2,5.3-6.1
		c3.6,0.2,4.2,3.1,4.8,6c6.4,31.3,12.9,62.6,19.2,94c0.8,3.7,2,5.2,6.2,5.1c11.5-0.4,23-0.1,34.5-0.1c3.6,0,8-0.7,7.8,4.7
		c-0.1,5.3-4.7,4.4-8.1,4.4c-13.2,0-26.4-0.3-39.6,0.1c-5.6,0.2-7.6-2.1-8.6-7.2c-4.9-24.3-9.9-48.6-15-72.9
		c-0.3-1.3-0.7-2.5-1.5-5.4c-2.9,15.7-5.6,29.9-8.2,44.1c-4.6,25.2-9.2,50.3-13.7,75.5c-0.5,2.9-1.1,5.9-4.5,6.3
		c-3.8,0.4-5-2.6-5.9-5.7c-6.4-22-12.7-44-19.1-66.1c-0.5-1.8-1.1-3.5-2.7-5.3c-2.1,9-4.3,18-6.3,27.1c-2.2,9.8-2.1,9.8-12,9.8
		c-30.3,0-60.7-0.1-91,0.1c-5.8,0-8.2-1.8-9.2-7.7c-3.1-19.1-6.7-38.2-10.2-57.2c-0.2-1.3-0.7-2.5-1.4-4.8c-3,12.8-5.8,24.4-8.5,36
		c-0.4,1.6-0.7,3.4-1.4,4.9c-1.1,2.4-3.2,3.3-5.6,2.4c-2.7-1-3.3-3.1-2.6-6c3.4-14.3,6.7-28.6,10-42.8c1.4-6,2.8-12.1,4.2-18.1
		c0.7-2.8,1.4-5.7,5.2-5.5c3.6,0.3,4.3,3,4.8,6c4.5,25.7,9.2,51.5,13.7,77.2c0.8,4.5,2,6.4,7.2,6.4c27.7-0.3,55.4-0.3,83.1-0.1
		c4,0,5.4-1.1,6.2-5.1c2.6-13.5,5.7-26.9,8.8-40.2c0.8-3.5,0.8-8.6,5.5-8.8c4.4-0.1,4.6,4.9,5.5,8.2c6.5,22,12.8,44,19.2,66
		C359.7,346.9,359.4,348.3,361.4,348.7z"/>
	<path class="st11" d="M348.4,153.8c-37.1,0-74.2,0-111.3,0c-2.4,0-4.9-0.2-7.3-0.7c-1.9-0.4-3.5-1.7-3.4-3.9
		c0.1-2.4,1.6-3.8,3.8-4.2c1.5-0.3,3-0.2,4.5-0.2c74.2,0,148.5-0.1,222.7,0c8.3,0,16.3,1,23.3,6.7c8,6.4,11.9,14.7,12.2,24.4
		c0.4,19.2,0.1,38.4,0.1,57.6c0,3.4-0.1,7.1-4.5,7c-4.2-0.1-4.5-4-4.5-7.2c-0.1-18.8-0.1-37.7,0-56.5c0-13.2-9.3-22.9-22.6-22.9
		C423.7,153.7,386,153.8,348.4,153.8z"/>
	<path class="st12" d="M212.3,194.5c-27.1,0-54.3,0-81.4,0c-1.7,0-3.4,0.1-5.1-0.2c-2-0.3-3.4-1.7-3.5-3.8c-0.2-2.1,0.9-3.8,2.8-4.4
		c1.5-0.5,3.3-0.6,5-0.6c55,0,110,0,165.1,0c0.8,0,1.5,0,2.3,0c3,0,5.4,1.1,5.5,4.4c0,3.6-2.6,4.6-5.8,4.7c-5.7,0-11.3,0.1-17,0.1
		C257.5,194.6,234.9,194.6,212.3,194.5C212.3,194.5,212.3,194.5,212.3,194.5z"/>
	<path class="st12" d="M183.3,162.8c17.9,0,35.8,0,53.7,0c3.3,0,7-0.2,7.1,4.4c0,4.3-3.5,4.7-6.9,4.7c-36.2,0-72.4,0-108.6,0
		c-3.3,0-6.5-0.5-6.2-4.6c0.2-3.9,3.4-4.5,6.6-4.5C147.1,162.8,165.2,162.8,183.3,162.8C183.3,162.8,183.3,162.8,183.3,162.8z"/>
	<path class="st12" d="M328.5,171.9c-16.4,0-32.8,0-49.2,0c-0.9,0-1.9,0-2.8-0.1c-3-0.3-5.2-1.7-4.9-5c0.2-2.9,2.4-4,5.2-4
		c11.9,0,23.7-0.1,35.6-0.1c21.5,0,42.9,0,64.4,0.1c1.7,0,3.5,0,5,0.6c1.8,0.8,2.9,2.5,2.5,4.6c-0.6,2.9-2.7,3.8-5.5,3.8
		c-11.1,0-22.2,0-33.3,0.1C339.8,171.9,334.2,171.9,328.5,171.9z"/>
	<path class="st12" d="M366,194.5c-11.1,0-22.2,0-33.3,0c-3.4,0-6.9-0.1-6.8-4.7c0.1-4,3.3-4.4,6.6-4.4c22.8,0,45.6,0,68.4,0
		c3.4,0,5.7,1.2,5.6,4.7c-0.1,3.7-2.8,4.4-6,4.4C389,194.5,377.5,194.5,366,194.5z"/>
	<path class="st11" d="M161.2,153.8c-10.5,0-21.1,0-31.6,0c-3.2,0-6.7-0.2-6.7-4.1c0-3.9,3.4-4.9,6.9-4.9c21.4,0,42.9,0,64.3,0
		c3.1,0,5.9,0.9,5.8,4.6c-0.1,3.6-2.9,4.4-6,4.4C183,153.8,172.1,153.8,161.2,153.8z"/>
	<path class="st11" d="M493.1,286.2c0,6.8,0,13.6,0,20.3c0,3.3-0.6,6.5-4.6,6.4c-4-0.1-4.4-3.4-4.4-6.6c0-13.6,0-27.1,0-40.7
		c0-3.2,0.6-6.5,4.6-6.4c4,0.1,4.4,3.4,4.4,6.6C493.1,272.6,493.1,279.4,493.1,286.2z"/>
	<path class="st12" d="M423.1,162.9c4.7,0,9.4,0,14.1,0c3.1,0,5.9,0.8,6,4.4c0.1,3.6-2.5,4.7-5.7,4.7c-9.6,0-19.1-0.1-28.7-0.1
		c-3.1,0-5.9-0.8-6-4.4c-0.1-4.1,3-4.6,6.3-4.6C413.7,162.9,418.4,162.8,423.1,162.9z"/>
	<path class="st13" d="M472.7,451.2c-8.7,7.7-13.8,7.7-22.6,0c-2.2-4.5-3.4-9.1-0.8-14c3.5-6.5,10.7-9.2,17.2-6.4
		c6.8,3,9.9,10.1,7.4,17.2C473.6,449.1,473.1,450.2,472.7,451.2z"/>
	<path class="st14" d="M127.4,451c-3.5,1.7-7.1,1.7-10.6,0c-1-1.4-2.2-2.6-2.9-4.1c-1.9-4.1-0.9-7.7,2.5-10.5
		c3.4-2.8,7.2-3,10.8-0.3c3.5,2.6,4.9,6.2,3.2,10.4C129.8,448.1,128.5,449.5,127.4,451z"/>
	<path class="st15" d="M163.6,451c-3.5,1.6-7.1,1.7-10.6,0c-1-1.4-2.2-2.6-2.9-4.1c-1.9-4.1-0.8-7.8,2.5-10.5c3.6-3,7.6-3,11.3,0
		c3.4,2.8,4.4,6.4,2.5,10.5C165.8,448.4,164.6,449.6,163.6,451z"/>
	<path class="st16" d="M199.8,451c-3.5,1.7-7.1,1.6-10.6,0c-0.7-0.9-1.5-1.7-2.1-2.6c-2.7-4.4-2-9.1,1.7-12.1
		c3.7-2.9,7.6-2.8,11.3,0c3.8,2.9,4.4,7.7,1.7,12.1C201.3,449.4,200.5,450.2,199.8,451z"/>
	<path class="st17" d="M236,451c-3.5,1.7-7,1.6-10.6,0c-1.8-2.1-3.8-4.2-3.8-7.3c0-4.2,1.9-7.2,5.8-8.8c3.7-1.5,7.1-0.7,9.7,2.2
		c2.8,3,3.6,6.6,1.5,10.3C237.9,448.7,236.9,449.8,236,451z"/>
</g>
</svg>
